<?xml version="1.0" encoding="utf-8"?>
<!-- Generator: Adobe Illustrator 25.2.3, SVG Export Plug-In . SVG Version: 6.00 Build 0)  -->
<svg version="1.1" id="Layer_1" xmlns="http://www.w3.org/2000/svg" xmlns:xlink="http://www.w3.org/1999/xlink" x="0px" y="0px"
	 viewBox="0 0 858 268.89" style="enable-background:new 0 0 858 268.89;" xml:space="preserve">
<style type="text/css">
	.st0{fill:#FFFFFF;}
	.st1{fill:#8E54EA;}
	.st2{fill:#FC7370;}
	.st3{fill:#07D3AC;}
	.st4{fill:#FCC232;}
	.st5{opacity:0.5;fill:#2E3035;}
</style>
<g>
	<g id="type_00000046340806353972846410000012644107968153854910_">
		<path id="type__x3C_CompoundPathItem_x3E__00000115476040128643559260000004887692344026774438_" class="st0" d="M320.58,93.4
			c0-4.71,3.64-8.35,8.35-8.35h28.82c22.09,0,35.83,12.53,35.83,31.52v0.27c0,21.15-16.97,32.19-37.71,32.19h-18.72v27.56
			c0,4.58-3.64,8.22-8.22,8.22c-4.71,0-8.35-3.64-8.35-8.22V93.4z M356.4,134.08c12.53,0,20.34-7,20.34-16.84v-0.27
			c0-11.04-7.95-16.84-20.34-16.84h-19.26v33.94H356.4z"/>
		<path id="type__x3C_CompoundPathItem_x3E__00000057133707130297890430000014283382151128141755_" class="st0" d="M440.59,185.27
			c-20.61,0-36.5-14.95-36.5-36.9v-0.27c0-20.34,14.41-37.04,34.75-37.04c22.63,0,33.81,18.59,33.81,35.02
			c0,4.58-3.5,7.81-7.68,7.81h-44.58c1.75,11.58,9.97,18.05,20.47,18.05c6.87,0,12.26-2.43,16.84-6.2c1.21-0.94,2.29-1.48,4.17-1.48
			c3.64,0,6.47,2.83,6.47,6.6c0,2.02-0.94,3.77-2.16,4.98C459.72,181.64,451.63,185.27,440.59,185.27z M456.75,143.11
			c-1.08-10.51-7.27-18.72-18.05-18.72c-9.97,0-16.97,7.68-18.45,18.72H456.75z"/>
		<path id="type__x3C_CompoundPathItem_x3E__00000075853010500097169150000004520825384279061421_" class="st0" d="M485.44,148.5
			v-0.27c0-20.34,16.16-37.17,37.98-37.17c21.82,0,37.85,16.57,37.85,36.9v0.27c0,20.2-16.16,37.04-38.12,37.04
			C501.47,185.27,485.44,168.71,485.44,148.5z M544.97,148.5v-0.27c0-12.52-9.02-22.9-21.82-22.9c-13.06,0-21.42,10.24-21.42,22.63
			v0.27c0,12.39,9.02,22.76,21.68,22.76C536.62,171,544.97,160.76,544.97,148.5z"/>
		<path id="type__x3C_CompoundPathItem_x3E__00000096775836048202930130000011679191783726516389_" class="st0" d="M577.84,119.95
			c0-4.58,3.5-8.22,8.08-8.22c4.58,0,8.22,3.64,8.22,8.22v4.45c5.25-7.41,12.66-13.33,24.24-13.33c16.7,0,33,13.2,33,36.9v0.27
			c0,23.57-16.16,36.91-33,36.91c-11.85,0-19.26-5.93-24.24-12.53v25.19c0,4.58-3.64,8.08-8.22,8.08c-4.45,0-8.08-3.5-8.08-8.08
			V119.95z M634.82,148.23v-0.27c0-13.74-9.29-22.76-20.34-22.76c-11.04,0-20.74,9.16-20.74,22.76v0.27
			c0,13.6,9.7,22.76,20.74,22.76C625.66,171,634.82,162.24,634.82,148.23z"/>
		<path id="type__x3C_CompoundPathItem_x3E__00000036948008308271260150000011409275753580852390_" class="st0" d="M669.16,92.74
			c0-4.45,3.5-8.08,8.08-8.08c4.58,0,8.22,3.64,8.22,8.08v83.51c0,4.58-3.64,8.08-8.22,8.08c-4.44,0-8.08-3.5-8.08-8.08V92.74z"/>
		<path id="type__x3C_CompoundPathItem_x3E__00000043421150148877599070000003165175895326106527_" class="st0" d="M739.34,185.27
			c-20.61,0-36.5-14.95-36.5-36.9v-0.27c0-20.34,14.41-37.04,34.75-37.04c22.63,0,33.81,18.59,33.81,35.02
			c0,4.58-3.5,7.81-7.68,7.81h-44.58c1.75,11.58,9.97,18.05,20.47,18.05c6.87,0,12.26-2.43,16.84-6.2c1.21-0.94,2.29-1.48,4.17-1.48
			c3.64,0,6.47,2.83,6.47,6.6c0,2.02-0.94,3.77-2.16,4.98C758.46,181.64,750.38,185.27,739.34,185.27z M755.5,143.11
			c-1.08-10.51-7.27-18.72-18.05-18.72c-9.97,0-16.97,7.68-18.45,18.72H755.5z"/>
		<path id="type__x3C_CompoundPathItem_x3E__00000116233559237401877710000000476783628734879902_" class="st0" d="M858,176.25
			c0,4.58-3.64,8.08-8.08,8.08c-4.58,0-8.22-3.5-8.22-8.08v-4.45c-5.25,7.41-12.66,13.34-24.24,13.34c-16.7,0-33-13.34-33-36.91
			v-0.27c0-23.57,16.03-36.9,33-36.9c11.72,0,19.13,5.79,24.24,12.52V92.74c0-4.58,3.64-8.08,8.08-8.08c4.58,0,8.22,3.5,8.22,8.08
			V176.25z M800.89,147.96v0.27c0,13.74,9.43,22.76,20.47,22.76c10.91,0,20.61-9.16,20.61-22.76v-0.27
			c0-13.74-9.7-22.76-20.61-22.76C810.18,125.2,800.89,133.82,800.89,147.96z"/>
	</g>
	<g id="logoMark_00000024002424564864111370000017328571240646376621_">
		<a xlink:href="53.5521568627451" >
			<path id="logoMark__x3C_PathItem_x3E__00000040574289803563312770000006855246841348640424_" class="st1" d="M238.55,243.52
				c-2.57,2.79-6.08,4.32-9.87,4.32c-3.39,0-6.61-1.26-9.1-3.56c-4.84-4.46-9.37-9.23-13.56-14.27c-1.77-2.12-3.49-4.29-5.13-6.51
				c-2.33-3.12-4.52-6.34-6.58-9.64c-0.64-1-1.26-2.02-1.87-3.04c-6.18-10.38-11.07-21.47-14.56-32.99
				c-0.32-1.03-0.62-2.08-0.92-3.12c-0.38-1.35-0.73-2.7-1.06-4.07c-0.58-2.31-1.1-4.65-1.57-6.99c-1.89-9.58-2.85-19.36-2.85-29.2
				c0-9.84,0.96-19.62,2.85-29.2c0.47-2.34,0.99-4.68,1.57-6.99c0.33-1.37,0.68-2.72,1.06-4.07c0.29-1.05,0.6-2.09,0.92-3.12
				c11.53-3.5,22.6-8.4,32.98-14.59c1.03-0.61,2.03-1.24,3.04-1.86c-1.89,3.39-3.62,6.86-5.19,10.41c-1.29,2.94-2.47,5.93-3.53,8.97
				c-4.51,12.92-6.85,26.61-6.85,40.46c0,13.85,2.34,27.54,6.85,40.46c1.06,3.04,2.24,6.03,3.53,8.97c1.95,4.4,4.14,8.71,6.6,12.86
				c0.01,0,0.01,0.01,0.03,0.03c0.12,0.19,0.23,0.39,0.35,0.6c2.31,3.87,4.84,7.59,7.54,11.16c1.53,1.99,3.1,3.94,4.74,5.84
				c3.07,3.58,6.35,6.98,9.84,10.19C243.23,229.56,243.56,238.08,238.55,243.52z"/>
		</a>
		<a xlink:href="38.9721568627451" >
			<path id="logoMark__x3C_PathItem_x3E__00000103958924551242169370000009218312055138184368_" class="st2" d="M194.3,213.85
				c-3.39-1.9-6.86-3.63-10.41-5.19c-2.95-1.31-5.93-2.49-8.97-3.55c-12.95-4.53-26.67-6.87-40.55-6.87
				c-13.89,0-27.61,2.34-40.56,6.87c-3.04,1.06-6.02,2.24-8.97,3.55c-4.35,1.9-8.57,4.08-12.69,6.51c-0.32,0.22-0.65,0.41-1,0.6
				c-3.78,2.28-7.43,4.75-10.93,7.43c-1.99,1.51-3.94,3.1-5.84,4.72c-3.55,3.07-6.93,6.34-10.12,9.8c-2.57,2.78-6.08,4.32-9.87,4.32
				c-3.39,0-6.61-1.26-9.1-3.56c-2.65-2.43-4.17-5.74-4.32-9.33c-0.15-3.58,1.12-7.01,3.55-9.64c4.45-4.81,9.19-9.32,14.19-13.49
				c2.12-1.77,4.3-3.49,6.51-5.15c3.12-2.31,6.34-4.52,9.64-6.6c1-0.62,2.02-1.25,3.04-1.86c10.38-6.19,21.45-11.09,32.98-14.59
				c1.06-0.32,2.12-0.62,3.18-0.93c1.34-0.38,2.67-0.73,4.01-1.06c2.31-0.58,4.65-1.1,6.99-1.57c9.61-1.9,19.43-2.88,29.31-2.88
				c9.87,0,19.69,0.97,29.3,2.88c2.34,0.47,4.68,0.99,6.99,1.57c1.35,0.33,2.69,0.7,4.01,1.06c1.06,0.31,2.12,0.61,3.18,0.93
				c3.49,11.53,8.39,22.61,14.56,32.99C193.04,211.83,193.66,212.85,194.3,213.85z"/>
		</a>
		<a xlink:href="42.918431372549" >
			<path id="logoMark__x3C_PathItem_x3E__00000160151255313308733250000000530473408387041690_" class="st3" d="M97.28,134.44
				c0,9.84-0.94,19.62-2.85,29.2c-0.47,2.34-0.99,4.68-1.56,6.99c-0.35,1.37-0.7,2.72-1.08,4.07c-0.29,1.05-0.6,2.09-0.92,3.12
				c-11.53,3.5-22.6,8.4-32.98,14.59c-1.02,0.61-2.03,1.24-3.04,1.86c1.89-3.39,3.63-6.86,5.19-10.41c1.29-2.94,2.47-5.93,3.53-8.97
				c4.52-12.92,6.85-26.61,6.85-40.46c0-13.85-2.33-27.54-6.85-40.46c-1.06-3.04-2.24-6.03-3.53-8.97c-1.93-4.4-4.14-8.71-6.6-12.86
				c0,0-0.01-0.01-0.01-0.03c-0.13-0.2-0.26-0.41-0.38-0.61c-2.31-3.85-4.83-7.57-7.53-11.15c-1.53-1.99-3.1-3.94-4.74-5.84
				c-3.07-3.58-6.35-6.98-9.84-10.19c-5.44-5.01-5.77-13.53-0.76-18.97c2.65-2.86,6.25-4.32,9.87-4.32c3.26,0,6.53,1.18,9.1,3.56
				c4.84,4.46,9.37,9.23,13.56,14.26c1.77,2.14,3.49,4.3,5.13,6.53c2.33,3.12,4.52,6.34,6.6,9.64c0.62,1,1.25,2.02,1.86,3.04
				c6.18,10.38,11.07,21.47,14.56,32.99c0.32,1.03,0.62,2.08,0.92,3.12c0.38,1.35,0.73,2.7,1.08,4.07c0.57,2.31,1.09,4.65,1.56,6.99
				C96.33,114.82,97.28,124.6,97.28,134.44z"/>
		</a>
		<a xlink:href="23.558431372549" >
			<path id="logoMark__x3C_PathItem_x3E__00000163778449245345405760000009344842617689606808_" class="st4" d="M247.76,39.74
				c0.15,3.58-1.12,7.01-3.55,9.64c-4.45,4.81-9.19,9.33-14.2,13.5c-2.12,1.77-4.29,3.47-6.5,5.13c-3.12,2.31-6.34,4.52-9.64,6.6
				c-1,0.63-2.01,1.25-3.04,1.86c-10.38,6.19-21.45,11.09-32.98,14.59c-1.06,0.32-2.12,0.62-3.18,0.93
				c-1.32,0.38-2.66,0.73-4.01,1.06c-2.31,0.58-4.65,1.1-6.99,1.57c-9.61,1.9-19.43,2.88-29.3,2.88c-9.88,0-19.71-0.97-29.31-2.88
				c-2.34-0.47-4.68-0.99-6.99-1.57c-1.34-0.33-2.67-0.68-4.01-1.06c-1.06-0.31-2.12-0.61-3.18-0.93
				c-3.49-11.53-8.39-22.61-14.56-32.99c-0.61-1.02-1.24-2.03-1.86-3.04c3.39,1.9,6.86,3.63,10.39,5.2
				c2.95,1.29,5.93,2.47,8.97,3.53c12.95,4.53,26.67,6.87,40.56,6.87c13.88,0,27.6-2.34,40.55-6.87c3.04-1.06,6.02-2.24,8.97-3.55
				c4.52-1.99,8.92-4.26,13.2-6.8c3.95-2.37,7.78-4.94,11.42-7.73c2.01-1.51,3.95-3.1,5.84-4.72c3.55-3.07,6.93-6.34,10.12-9.8
				c2.44-2.63,5.76-4.16,9.33-4.3c3.59-0.15,7.01,1.12,9.64,3.55C246.09,32.83,247.61,36.15,247.76,39.74z"/>
		</a>
		<a xlink:href="53.5521568627451" >
			
				<circle id="logoMark__x3C_PathItem_x3E__00000075850116477475161440000016909906974315726731_" class="st1" cx="243.05" cy="109.91" r="25.84"/>
		</a>
		<a xlink:href="23.558431372549" >
			
				<circle id="logoMark__x3C_PathItem_x3E__00000064333604072901210410000016952096449433706403_" class="st4" cx="109.83" cy="25.84" r="25.84"/>
		</a>
		<a xlink:href="38.9721568627451" >
			
				<circle id="logoMark__x3C_PathItem_x3E__00000075133895283867982550000010729082508698233242_" class="st2" cx="158.91" cy="243.05" r="25.84"/>
		</a>
		<a xlink:href="42.918431372549" >
			
				<circle id="logoMark__x3C_PathItem_x3E__00000038407229376643408420000011384092232322529455_" class="st3" cx="25.84" cy="158.91" r="25.84"/>
		</a>
		<a xlink:href="81.1874509803922" >
			<path id="logoMark__x3C_PathItem_x3E__00000075141028718441266330000002122064305576087971_" class="st5" d="M213.88,74.6
				c-1.89,3.39-3.62,6.86-5.19,10.41c-1.29,2.94-2.47,5.93-3.53,8.97c-8.69,4.21-17.75,7.66-27.05,10.26
				c-1.26,0.35-2.53,0.68-3.79,1c0.47-2.34,0.99-4.68,1.57-6.99c0.33-1.37,0.68-2.72,1.06-4.07c0.29-1.05,0.6-2.09,0.92-3.12
				c11.53-3.5,22.6-8.4,32.98-14.59C211.88,75.85,212.88,75.23,213.88,74.6z"/>
		</a>
		<a xlink:href="81.1874509803922" >
			<path id="logoMark__x3C_PathItem_x3E__00000093138148876178746750000017369002821398470559_" class="st5" d="M194.3,213.85
				c-3.39-1.9-6.86-3.63-10.41-5.19c-2.95-1.31-5.93-2.49-8.97-3.55c-4.2-8.68-7.63-17.72-10.22-27c-0.36-1.28-0.71-2.56-1.03-3.85
				c2.34,0.47,4.68,0.99,6.99,1.57c1.35,0.33,2.69,0.7,4.01,1.06c1.06,0.31,2.12,0.61,3.18,0.93c3.49,11.53,8.39,22.61,14.56,32.99
				C193.04,211.83,193.66,212.85,194.3,213.85z"/>
		</a>
		<a xlink:href="81.1874509803922" >
			<path id="logoMark__x3C_PathItem_x3E__00000010281555641150206590000013329873613285426106_" class="st5" d="M94.43,163.64
				c-0.47,2.34-0.99,4.68-1.56,6.99c-0.35,1.37-0.7,2.72-1.08,4.07c-0.29,1.05-0.6,2.09-0.92,3.12c-11.53,3.5-22.6,8.4-32.98,14.59
				c-1.02,0.61-2.03,1.24-3.04,1.86c1.89-3.39,3.63-6.86,5.19-10.41c1.29-2.94,2.47-5.93,3.53-8.97
				c8.69-4.21,17.75-7.66,27.05-10.26C91.9,164.29,93.16,163.96,94.43,163.64z"/>
		</a>
		<a xlink:href="81.1874509803922" >
			<path id="logoMark__x3C_PathItem_x3E__00000106858252876404587190000007558328468622033540_" class="st5" d="M105.07,94.62
				c-2.34-0.47-4.68-0.99-6.99-1.57c-1.34-0.33-2.67-0.68-4.01-1.06c-1.06-0.31-2.12-0.61-3.18-0.93
				c-3.49-11.53-8.39-22.61-14.56-32.99c-0.61-1.02-1.24-2.03-1.86-3.04c3.39,1.9,6.86,3.63,10.39,5.2
				c2.95,1.29,5.93,2.47,8.97,3.53c4.21,8.68,7.63,17.72,10.23,27C104.4,92.04,104.75,93.32,105.07,94.62z"/>
		</a>
	</g>
</g>
</svg>
